<svg width="19" height="19" viewBox="0 0 19 19" fill="none" xmlns="http://www.w3.org/2000/svg">
<path d="M1.56641 11.7667L1.11563 11.3159L0.928906 11.5026V11.7667H1.56641ZM11.7664 1.56665L12.2172 1.11587C11.9682 0.866911 11.5646 0.866911 11.3156 1.11587L11.7664 1.56665ZM17.4331 7.23332L17.8839 7.6841C18.0034 7.56454 18.0706 7.40239 18.0706 7.23332C18.0706 7.06424 18.0034 6.90209 17.8839 6.78254L17.4331 7.23332ZM7.23307 17.4333V18.0708H7.49713L7.68385 17.8841L7.23307 17.4333ZM1.56641 17.4333H0.928906C0.928906 17.7854 1.21432 18.0708 1.56641 18.0708L1.56641 17.4333ZM2.01719 12.2174L12.2172 2.01743L11.3156 1.11587L1.11563 11.3159L2.01719 12.2174ZM11.3156 2.01743L16.9823 7.6841L17.8839 6.78254L12.2172 1.11587L11.3156 2.01743ZM16.9823 6.78254L6.78229 16.9825L7.68385 17.8841L17.8839 7.6841L16.9823 6.78254ZM7.23307 16.7958H1.56641V18.0708H7.23307V16.7958ZM2.20391 17.4333V11.7667H0.928906V17.4333H2.20391ZM7.91563 5.41743L13.5823 11.0841L14.4839 10.1825L8.81719 4.51587L7.91563 5.41743ZM10.0664 18.0708H17.9997V16.7958H10.0664V18.0708Z" fill="white"/>
</svg>
