<svg width="17" height="17" viewBox="0 0 17 17" fill="none" xmlns="http://www.w3.org/2000/svg">
<path d="M7.75 5.5V6.25H9.25V5.5H7.75ZM9.25 5.49V4.74H7.75V5.49H9.25ZM9.25 12V8H7.75V12H9.25ZM9.25 5.5V5.49H7.75V5.5H9.25ZM7 9.25H8.5V7.75H7V9.25ZM7 12.25H10V10.75H7V12.25ZM8.5 2.25C11.9518 2.25 14.75 5.04822 14.75 8.5H16.25C16.25 4.21979 12.7802 0.75 8.5 0.75V2.25ZM2.25 8.5C2.25 5.04822 5.04822 2.25 8.5 2.25V0.75C4.21979 0.75 0.75 4.21979 0.75 8.5H2.25ZM8.5 14.75C5.04822 14.75 2.25 11.9518 2.25 8.5H0.75C0.75 12.7802 4.21979 16.25 8.5 16.25V14.75ZM8.5 16.25C12.7802 16.25 16.25 12.7802 16.25 8.5H14.75C14.75 11.9518 11.9518 14.75 8.5 14.75V16.25Z" fill="white"/>
</svg>
