<svg width="306" height="63" viewBox="0 0 306 63" fill="none" xmlns="http://www.w3.org/2000/svg">
<ellipse cx="33" cy="31.3403" rx="33" ry="31.3403" fill="#F67900"/>
<path d="M23.8738 40.9978C21.7929 40.9978 19.9506 40.9023 18.347 40.7114C16.7433 40.5205 15.5883 40.3296 14.882 40.1387V39.2796L14.3092 35.6428C14.672 35.9482 15.2733 36.2728 16.1133 36.6164C16.9533 36.9601 18.032 37.256 19.3492 37.5042C20.6665 37.7332 22.1938 37.8478 23.9311 37.8478C25.0001 37.8478 25.8211 37.781 26.3938 37.6473C26.9665 37.4946 27.3579 37.2846 27.5679 37.0173C27.7779 36.7501 27.8829 36.4351 27.8829 36.0723C27.8829 35.6142 27.7301 35.261 27.4247 35.0128C27.1192 34.7455 26.5656 34.526 25.7638 34.3542C24.9811 34.1823 23.8642 34.001 22.4133 33.8101C20.6761 33.581 19.2251 33.266 18.0606 32.8651C16.8961 32.4642 16.0274 31.901 15.4547 31.1755C14.882 30.431 14.5956 29.4478 14.5956 28.226C14.5956 27.2332 14.8533 26.3646 15.3688 25.6201C15.8842 24.8755 16.7147 24.2932 17.8601 23.8732C19.0056 23.4532 20.5233 23.2432 22.4133 23.2432C24.3988 23.2432 26.0979 23.3387 27.5106 23.5296C28.9233 23.7205 29.897 23.9114 30.4315 24.1023V24.9614L31.2906 28.1114C30.8133 27.8632 30.1261 27.6055 29.2288 27.3382C28.3315 27.071 27.2911 26.8514 26.1074 26.6796C24.9238 26.4887 23.6447 26.3932 22.2701 26.3932C21.4111 26.3932 20.7429 26.4696 20.2656 26.6223C19.7883 26.756 19.4447 26.9564 19.2347 27.2237C19.0438 27.4719 18.9483 27.7869 18.9483 28.1687C18.9483 28.6269 19.1201 28.9992 19.4638 29.2855C19.8265 29.5528 20.4088 29.7723 21.2106 29.9442C22.0124 30.116 23.0911 30.2782 24.4465 30.431C26.5274 30.6601 28.1311 31.0037 29.2574 31.4619C30.3838 31.9201 31.157 32.5119 31.577 33.2373C32.0161 33.9437 32.2356 34.8028 32.2356 35.8146C32.2356 36.6928 32.0733 37.466 31.7488 38.1342C31.4242 38.7832 30.9183 39.3178 30.2311 39.7378C29.5629 40.1578 28.6942 40.4728 27.6251 40.6828C26.5751 40.8928 25.3247 40.9978 23.8738 40.9978ZM34.5567 40.7114C34.6903 40.7114 34.8144 40.5778 34.929 40.3105C35.0626 40.0432 35.1294 39.6042 35.1294 38.9932V25.2478C35.1294 24.6369 35.0626 24.2073 34.929 23.9592C34.7953 23.6919 34.6617 23.5487 34.5281 23.5296H43.9208C45.5435 23.5296 46.8513 23.7682 47.844 24.2455C48.8558 24.7037 49.6003 25.3719 50.0776 26.2501C50.5549 27.1092 50.7935 28.1401 50.7935 29.3428C50.7935 30.5646 50.5549 31.6242 50.0776 32.5214C49.6003 33.3996 48.8558 34.0773 47.844 34.5546C46.8513 35.0128 45.5435 35.2419 43.9208 35.2419H39.5394V38.9932C39.5394 39.6042 39.6063 40.0432 39.7399 40.3105C39.8735 40.5778 40.0072 40.7114 40.1408 40.7114H34.5567ZM40.7135 32.0919H42.1453C43.2717 32.0919 44.1403 31.9964 44.7513 31.8055C45.3813 31.6146 45.8203 31.3187 46.0685 30.9178C46.3167 30.5169 46.4408 29.9919 46.4408 29.3428C46.4408 28.7128 46.3072 28.2069 46.0399 27.8251C45.7917 27.4432 45.3717 27.176 44.7799 27.0232C44.2072 26.8514 43.4244 26.7655 42.4317 26.7655H40.7135C40.1217 26.7655 39.7781 26.8037 39.6826 26.8801C39.5872 26.9373 39.5394 27.1569 39.5394 27.5387V31.2901C39.5394 31.6719 39.5872 31.901 39.6826 31.9773C39.7781 32.0537 40.1217 32.0919 40.7135 32.0919Z" fill="#21337D"/>
<path d="M92.0042 40.6109C89.9233 40.6109 88.081 40.5155 86.4774 40.3246C84.8738 40.1337 83.7188 39.9428 83.0124 39.7519V38.8928L82.4397 35.2559C82.8024 35.5614 83.4038 35.8859 84.2438 36.2296C85.0838 36.5732 86.1624 36.8691 87.4797 37.1173C88.7969 37.3464 90.3242 37.4609 92.0615 37.4609C93.1306 37.4609 93.9515 37.3941 94.5242 37.2605C95.0969 37.1078 95.4883 36.8978 95.6983 36.6305C95.9083 36.3632 96.0133 36.0482 96.0133 35.6855C96.0133 35.2273 95.8606 34.8741 95.5551 34.6259C95.2497 34.3587 94.696 34.1391 93.8942 33.9673C93.1115 33.7955 91.9947 33.6141 90.5438 33.4232C88.8065 33.1941 87.3556 32.8791 86.191 32.4782C85.0265 32.0773 84.1579 31.5141 83.5851 30.7887C83.0124 30.0441 82.726 29.0609 82.726 27.8391C82.726 26.8464 82.9838 25.9778 83.4992 25.2332C84.0147 24.4887 84.8451 23.9064 85.9906 23.4864C87.136 23.0664 88.6538 22.8564 90.5438 22.8564C92.5292 22.8564 94.2283 22.9519 95.641 23.1428C97.0538 23.3337 98.0274 23.5246 98.5619 23.7155V24.5746L99.421 27.7246C98.9438 27.4764 98.2565 27.2187 97.3592 26.9514C96.4619 26.6841 95.4215 26.4646 94.2379 26.2928C93.0542 26.1019 91.7751 26.0064 90.4006 26.0064C89.5415 26.0064 88.8733 26.0828 88.396 26.2355C87.9188 26.3691 87.5751 26.5696 87.3651 26.8369C87.1742 27.085 87.0788 27.4 87.0788 27.7819C87.0788 28.24 87.2506 28.6123 87.5942 28.8987C87.9569 29.1659 88.5392 29.3855 89.341 29.5573C90.1429 29.7291 91.2215 29.8914 92.5769 30.0441C94.6579 30.2732 96.2615 30.6169 97.3879 31.075C98.5142 31.5332 99.2874 32.125 99.7074 32.8505C100.146 33.5569 100.366 34.4159 100.366 35.4278C100.366 36.3059 100.204 37.0791 99.8792 37.7473C99.5547 38.3964 99.0488 38.9309 98.3615 39.3509C97.6933 39.7709 96.8247 40.0859 95.7556 40.2959C94.7056 40.5059 93.4551 40.6109 92.0042 40.6109ZM101.169 40.3246C101.265 40.3246 101.408 40.1909 101.599 39.9237C101.809 39.6564 102.048 39.2078 102.315 38.5778C102.449 38.2914 102.659 37.8046 102.945 37.1173C103.25 36.4109 103.594 35.5996 103.976 34.6832C104.377 33.7478 104.787 32.7741 105.207 31.7623C105.646 30.7505 106.057 29.7769 106.439 28.8414C106.839 27.9059 107.183 27.085 107.469 26.3787C107.775 25.6723 107.985 25.1664 108.099 24.8609C108.348 24.25 108.481 23.8109 108.5 23.5437C108.519 23.2764 108.481 23.1428 108.386 23.1428H114.629C114.552 23.1428 114.524 23.2764 114.543 23.5437C114.562 23.7919 114.695 24.2309 114.944 24.8609C115.058 25.1664 115.259 25.6723 115.545 26.3787C115.831 27.0659 116.165 27.8773 116.547 28.8128C116.929 29.7291 117.33 30.6932 117.75 31.705C118.17 32.7169 118.571 33.6905 118.953 34.6259C119.334 35.5423 119.678 36.3537 119.984 37.06C120.289 37.7664 120.509 38.2723 120.642 38.5778C120.929 39.2078 121.205 39.6564 121.473 39.9237C121.74 40.1909 121.94 40.3246 122.074 40.3246H115.574C115.726 40.3055 115.85 40.1623 115.946 39.895C116.06 39.6087 116.06 39.1696 115.946 38.5778C115.927 38.4441 115.908 38.3391 115.889 38.2628C115.869 38.1673 115.831 38.0337 115.774 37.8619C115.698 37.5755 115.612 37.375 115.516 37.2605C115.421 37.1269 115.259 37.0505 115.029 37.0314C114.819 37.0123 114.466 37.0028 113.97 37.0028H109.044C108.529 37.0028 108.147 37.0219 107.899 37.06C107.651 37.0791 107.479 37.1459 107.384 37.2605C107.288 37.375 107.212 37.5659 107.154 37.8332C107.135 37.9287 107.107 38.0528 107.069 38.2055C107.049 38.3582 107.03 38.4823 107.011 38.5778C106.878 39.1887 106.839 39.6278 106.897 39.895C106.973 40.1623 107.069 40.3055 107.183 40.3246H101.169ZM109.789 33.8528H113.139C113.693 33.8528 113.999 33.805 114.056 33.7096C114.113 33.6141 114.084 33.4041 113.97 33.0796C113.722 32.4687 113.474 31.8482 113.225 31.2182C112.977 30.5691 112.739 29.9391 112.509 29.3282C112.299 28.7173 112.109 28.1541 111.937 27.6387C111.784 27.1041 111.65 26.6555 111.536 26.2928H111.479C111.211 26.9991 110.934 27.7437 110.648 28.5264C110.362 29.3091 110.094 30.0346 109.846 30.7028C109.598 31.3709 109.398 31.9246 109.245 32.3637C109.092 32.7837 109.016 32.9937 109.016 32.9937C108.882 33.2991 108.834 33.5187 108.873 33.6523C108.911 33.7859 109.216 33.8528 109.789 33.8528ZM123.319 40.3246C123.452 40.3246 123.576 40.1909 123.691 39.9237C123.825 39.6564 123.891 39.2173 123.891 38.6064V24.8609C123.891 24.25 123.825 23.8205 123.691 23.5723C123.557 23.305 123.424 23.1619 123.29 23.1428H132.683C134.363 23.1428 135.699 23.3528 136.692 23.7728C137.704 24.1928 138.429 24.8132 138.868 25.6341C139.326 26.4359 139.556 27.4382 139.556 28.6409C139.556 29.5 139.393 30.2637 139.069 30.9319C138.763 31.6 138.334 32.1441 137.78 32.5641C137.226 32.9841 136.606 33.2896 135.919 33.4805V33.5664C136.682 33.8719 137.484 34.4732 138.324 35.3705C139.164 36.2487 139.918 37.2319 140.586 38.32C141.026 39.0264 141.426 39.5323 141.789 39.8378C142.152 40.1432 142.429 40.3055 142.62 40.3246H135.403C135.632 40.3055 135.814 40.1814 135.947 39.9523C136.1 39.7041 136.052 39.3032 135.804 38.7496C135.403 37.8332 134.916 37.0409 134.344 36.3728C133.771 35.7046 133.103 35.1987 132.339 34.855C131.595 34.4923 130.736 34.3109 129.762 34.3109H129.447C128.855 34.3109 128.511 34.3587 128.416 34.4541C128.321 34.5496 128.273 34.7882 128.273 35.17V38.6064C128.273 39.2173 128.34 39.6564 128.473 39.9237C128.607 40.1909 128.741 40.3246 128.874 40.3246H123.319ZM129.447 31.4187H131.795C132.998 31.4187 133.866 31.2087 134.401 30.7887C134.936 30.3496 135.203 29.6337 135.203 28.6409C135.203 28.2019 135.107 27.8105 134.916 27.4669C134.726 27.1232 134.401 26.8559 133.943 26.665C133.504 26.4741 132.883 26.3787 132.081 26.3787H129.447C128.855 26.3787 128.511 26.4073 128.416 26.4646C128.321 26.5219 128.273 26.7414 128.273 27.1232V30.6455C128.273 31.0273 128.321 31.2564 128.416 31.3328C128.511 31.39 128.855 31.4187 129.447 31.4187ZM142.265 40.3246C142.36 40.3246 142.503 40.1909 142.694 39.9237C142.904 39.6564 143.143 39.2078 143.41 38.5778C143.544 38.2914 143.754 37.8046 144.04 37.1173C144.346 36.4109 144.689 35.5996 145.071 34.6832C145.472 33.7478 145.883 32.7741 146.303 31.7623C146.742 30.7505 147.152 29.7769 147.534 28.8414C147.935 27.9059 148.278 27.085 148.565 26.3787C148.87 25.6723 149.08 25.1664 149.195 24.8609C149.443 24.25 149.577 23.8109 149.596 23.5437C149.615 23.2764 149.577 23.1428 149.481 23.1428H155.724C155.648 23.1428 155.619 23.2764 155.638 23.5437C155.657 23.7919 155.791 24.2309 156.039 24.8609C156.153 25.1664 156.354 25.6723 156.64 26.3787C156.927 27.0659 157.261 27.8773 157.643 28.8128C158.024 29.7291 158.425 30.6932 158.845 31.705C159.265 32.7169 159.666 33.6905 160.048 34.6259C160.43 35.5423 160.773 36.3537 161.079 37.06C161.384 37.7664 161.604 38.2723 161.738 38.5778C162.024 39.2078 162.301 39.6564 162.568 39.9237C162.835 40.1909 163.036 40.3246 163.169 40.3246H156.669C156.822 40.3055 156.946 40.1623 157.041 39.895C157.156 39.6087 157.156 39.1696 157.041 38.5778C157.022 38.4441 157.003 38.3391 156.984 38.2628C156.965 38.1673 156.927 38.0337 156.869 37.8619C156.793 37.5755 156.707 37.375 156.612 37.2605C156.516 37.1269 156.354 37.0505 156.125 37.0314C155.915 37.0123 155.562 37.0028 155.065 37.0028H150.14C149.624 37.0028 149.243 37.0219 148.994 37.06C148.746 37.0791 148.574 37.1459 148.479 37.2605C148.383 37.375 148.307 37.5659 148.25 37.8332C148.231 37.9287 148.202 38.0528 148.164 38.2055C148.145 38.3582 148.126 38.4823 148.107 38.5778C147.973 39.1887 147.935 39.6278 147.992 39.895C148.068 40.1623 148.164 40.3055 148.278 40.3246H142.265ZM150.884 33.8528H154.235C154.788 33.8528 155.094 33.805 155.151 33.7096C155.208 33.6141 155.18 33.4041 155.065 33.0796C154.817 32.4687 154.569 31.8482 154.321 31.2182C154.073 30.5691 153.834 29.9391 153.605 29.3282C153.395 28.7173 153.204 28.1541 153.032 27.6387C152.879 27.1041 152.746 26.6555 152.631 26.2928H152.574C152.307 26.9991 152.03 27.7437 151.743 28.5264C151.457 29.3091 151.19 30.0346 150.942 30.7028C150.693 31.3709 150.493 31.9246 150.34 32.3637C150.188 32.7837 150.111 32.9937 150.111 32.9937C149.978 33.2991 149.93 33.5187 149.968 33.6523C150.006 33.7859 150.312 33.8528 150.884 33.8528ZM164.386 40.3246C164.519 40.3246 164.653 40.1909 164.786 39.9237C164.92 39.6564 164.987 39.2173 164.987 38.6064V24.8609C164.987 24.25 164.92 23.8205 164.786 23.5723C164.653 23.305 164.519 23.1619 164.386 23.1428H173.377C175.057 23.1428 176.47 23.305 177.616 23.6296C178.761 23.9541 179.677 24.4028 180.365 24.9755C181.071 25.5482 181.606 26.2069 181.968 26.9514C182.331 27.6769 182.57 28.45 182.684 29.2709C182.818 30.0919 182.885 30.9223 182.885 31.7623C182.885 32.5259 182.818 33.3182 182.684 34.1391C182.57 34.9409 182.321 35.7141 181.94 36.4587C181.577 37.1841 181.042 37.8428 180.336 38.4346C179.649 39.0073 178.732 39.4655 177.587 39.8091C176.461 40.1528 175.057 40.3246 173.377 40.3246H164.386ZM170.542 37.1459H171.716C173.358 37.1459 174.676 37.0123 175.668 36.745C176.661 36.4587 177.386 35.9432 177.845 35.1987C178.303 34.4541 178.532 33.3755 178.532 31.9628V31.4473C178.532 29.9582 178.322 28.8605 177.902 28.1541C177.482 27.4287 176.776 26.9514 175.783 26.7223C174.79 26.4932 173.435 26.3787 171.716 26.3787H170.542C169.989 26.3787 169.655 26.4169 169.54 26.4932C169.445 26.5505 169.397 26.7796 169.397 27.1805V36.2869C169.397 36.7069 169.445 36.955 169.54 37.0314C169.655 37.1078 169.989 37.1459 170.542 37.1459ZM185.185 40.3246C185.319 40.3246 185.452 40.1909 185.586 39.9237C185.719 39.6564 185.786 39.2173 185.786 38.6064V24.8609C185.786 24.25 185.719 23.8205 185.586 23.5723C185.452 23.305 185.319 23.1619 185.185 23.1428H190.798C190.664 23.1428 190.53 23.2764 190.397 23.5437C190.263 23.8109 190.196 24.2596 190.196 24.8896V29.2709C190.196 29.6909 190.244 29.9391 190.339 30.0155C190.454 30.0919 190.798 30.13 191.37 30.13H198.73C199.303 30.13 199.637 30.1014 199.732 30.0441C199.828 29.9678 199.875 29.71 199.875 29.2709V24.8609C199.875 24.25 199.809 23.8205 199.675 23.5723C199.541 23.305 199.408 23.1619 199.274 23.1428H204.887C204.753 23.1428 204.619 23.2764 204.486 23.5437C204.352 23.8109 204.285 24.2596 204.285 24.8896V38.6064C204.285 39.2173 204.352 39.6564 204.486 39.9237C204.619 40.1909 204.753 40.3246 204.887 40.3246H199.274C199.408 40.3246 199.541 40.1909 199.675 39.9237C199.809 39.6564 199.875 39.2173 199.875 38.6064V34.1391C199.875 33.7 199.818 33.4519 199.704 33.3946C199.608 33.3182 199.284 33.28 198.73 33.28H191.37C190.798 33.28 190.454 33.3182 190.339 33.3946C190.244 33.4709 190.196 33.7191 190.196 34.1391V38.6064C190.196 39.2173 190.263 39.6564 190.397 39.9237C190.53 40.1909 190.664 40.3246 190.798 40.3246H185.185ZM207.466 40.3246C207.6 40.3246 207.734 40.1909 207.867 39.9237C208.001 39.6564 208.068 39.2173 208.068 38.6064V24.8609C208.068 24.25 208.001 23.8205 207.867 23.5723C207.734 23.305 207.6 23.1619 207.466 23.1428H213.079C212.946 23.1428 212.812 23.2764 212.678 23.5437C212.545 23.8109 212.478 24.2596 212.478 24.8896V29.2709C212.478 29.6909 212.526 29.9391 212.621 30.0155C212.736 30.0919 213.079 30.13 213.652 30.13H221.011C221.584 30.13 221.918 30.1014 222.014 30.0441C222.109 29.9678 222.157 29.71 222.157 29.2709V24.8609C222.157 24.25 222.09 23.8205 221.956 23.5723C221.823 23.305 221.689 23.1619 221.556 23.1428H227.168C227.035 23.1428 226.901 23.2764 226.767 23.5437C226.634 23.8109 226.567 24.2596 226.567 24.8896V38.6064C226.567 39.2173 226.634 39.6564 226.767 39.9237C226.901 40.1909 227.035 40.3246 227.168 40.3246H221.556C221.689 40.3246 221.823 40.1909 221.956 39.9237C222.09 39.6564 222.157 39.2173 222.157 38.6064V34.1391C222.157 33.7 222.1 33.4519 221.985 33.3946C221.89 33.3182 221.565 33.28 221.011 33.28H213.652C213.079 33.28 212.736 33.3182 212.621 33.3946C212.526 33.4709 212.478 33.7191 212.478 34.1391V38.6064C212.478 39.2173 212.545 39.6564 212.678 39.9237C212.812 40.1909 212.946 40.3246 213.079 40.3246H207.466ZM229.748 40.3246C229.882 40.3246 230.006 40.2005 230.12 39.9523C230.254 39.685 230.321 39.2364 230.321 38.6064V24.8609C230.321 24.25 230.254 23.8109 230.12 23.5437C230.006 23.2764 229.882 23.1428 229.748 23.1428H235.275C235.141 23.1428 235.008 23.2764 234.874 23.5437C234.74 23.7919 234.673 24.2405 234.673 24.8896V38.6064C234.673 39.2173 234.74 39.6564 234.874 39.9237C235.008 40.1909 235.141 40.3246 235.275 40.3246H229.748Z" fill="#21337D"/>
<path d="M248.533 40.3246C248.667 40.3246 248.8 40.1909 248.934 39.9237C249.068 39.6564 249.134 39.2173 249.134 38.6064V24.8609C249.134 24.25 249.068 23.8205 248.934 23.5723C248.8 23.305 248.667 23.1619 248.533 23.1428H265.257V24.0019L265.829 27.3237C265.352 27.1137 264.512 26.8941 263.309 26.665C262.107 26.4169 260.656 26.2928 258.957 26.2928H254.719C254.146 26.2928 253.802 26.3405 253.688 26.4359C253.592 26.5123 253.544 26.7509 253.544 27.1519V29.2709C253.544 29.6909 253.592 29.9391 253.688 30.0155C253.802 30.0919 254.136 30.13 254.69 30.13H258.814C259.921 30.13 260.809 30.0728 261.477 29.9582C262.164 29.8246 262.613 29.6909 262.823 29.5573C262.746 29.92 262.66 30.34 262.565 30.8173C262.469 31.2946 262.393 31.7528 262.336 32.1919C262.279 32.6309 262.25 32.9937 262.25 33.28H254.69C254.136 33.28 253.802 33.3182 253.688 33.3946C253.592 33.4519 253.544 33.7 253.544 34.1391V36.2582C253.544 36.6973 253.592 36.955 253.688 37.0314C253.783 37.1078 254.117 37.1459 254.69 37.1459H262.422C263.529 37.1459 264.417 37.0219 265.085 36.7737C265.772 36.5064 266.221 36.2487 266.431 36.0005L265.858 39.4369V40.3246H248.533ZM268.187 40.3246C268.32 40.3246 268.444 40.1909 268.559 39.9237C268.693 39.6564 268.759 39.2173 268.759 38.6064V24.8609C268.759 24.25 268.693 23.8205 268.559 23.5723C268.425 23.305 268.292 23.1619 268.158 23.1428H277.551C279.231 23.1428 280.567 23.3528 281.56 23.7728C282.572 24.1928 283.297 24.8132 283.736 25.6341C284.194 26.4359 284.423 27.4382 284.423 28.6409C284.423 29.5 284.261 30.2637 283.937 30.9319C283.631 31.6 283.202 32.1441 282.648 32.5641C282.094 32.9841 281.474 33.2896 280.787 33.4805V33.5664C281.55 33.8719 282.352 34.4732 283.192 35.3705C284.032 36.2487 284.786 37.2319 285.454 38.32C285.893 39.0264 286.294 39.5323 286.657 39.8378C287.02 40.1432 287.297 40.3055 287.488 40.3246H280.271C280.5 40.3055 280.682 40.1814 280.815 39.9523C280.968 39.7041 280.92 39.3032 280.672 38.7496C280.271 37.8332 279.784 37.0409 279.212 36.3728C278.639 35.7046 277.971 35.1987 277.207 34.855C276.463 34.4923 275.603 34.3109 274.63 34.3109H274.315C273.723 34.3109 273.379 34.3587 273.284 34.4541C273.188 34.5496 273.141 34.7882 273.141 35.17V38.6064C273.141 39.2173 273.208 39.6564 273.341 39.9237C273.475 40.1909 273.608 40.3246 273.742 40.3246H268.187ZM274.315 31.4187H276.663C277.866 31.4187 278.734 31.2087 279.269 30.7887C279.803 30.3496 280.071 29.6337 280.071 28.6409C280.071 28.2019 279.975 27.8105 279.784 27.4669C279.593 27.1232 279.269 26.8559 278.811 26.665C278.372 26.4741 277.751 26.3787 276.949 26.3787H274.315C273.723 26.3787 273.379 26.4073 273.284 26.4646C273.188 26.5219 273.141 26.7414 273.141 27.1232V30.6455C273.141 31.0273 273.188 31.2564 273.284 31.3328C273.379 31.39 273.723 31.4187 274.315 31.4187ZM288.65 40.3246C288.784 40.3246 288.908 40.1909 289.023 39.9237C289.156 39.6564 289.223 39.2173 289.223 38.6064V24.8609C289.223 24.25 289.156 23.8205 289.023 23.5723C288.889 23.305 288.755 23.1619 288.622 23.1428H298.015C299.637 23.1428 300.945 23.3814 301.938 23.8587C302.95 24.3169 303.694 24.985 304.171 25.8632C304.649 26.7223 304.887 27.7532 304.887 28.9559C304.887 30.1778 304.649 31.2373 304.171 32.1346C303.694 33.0128 302.95 33.6905 301.938 34.1678C300.945 34.6259 299.637 34.855 298.015 34.855H293.633V38.6064C293.633 39.2173 293.7 39.6564 293.834 39.9237C293.967 40.1909 294.101 40.3246 294.235 40.3246H288.65ZM294.807 31.705H296.239C297.365 31.705 298.234 31.6096 298.845 31.4187C299.475 31.2278 299.914 30.9319 300.162 30.5309C300.41 30.13 300.535 29.605 300.535 28.9559C300.535 28.3259 300.401 27.82 300.134 27.4382C299.885 27.0564 299.465 26.7891 298.874 26.6364C298.301 26.4646 297.518 26.3787 296.525 26.3787H294.807C294.215 26.3787 293.872 26.4169 293.776 26.4932C293.681 26.5505 293.633 26.77 293.633 27.1519V30.9032C293.633 31.285 293.681 31.5141 293.776 31.5905C293.872 31.6669 294.215 31.705 294.807 31.705Z" fill="#F67900"/>
</svg>
