<svg width="19" height="18" viewBox="0 0 19 18" fill="none" xmlns="http://www.w3.org/2000/svg">
<path fill-rule="evenodd" clip-rule="evenodd" d="M17.5303 1.53033C17.8232 1.23744 17.8232 0.762558 17.5303 0.469668C17.2374 0.176777 16.7626 0.176777 16.4697 0.469668L0.469668 16.4697C0.176777 16.7626 0.176777 17.2374 0.469668 17.5303C0.762558 17.8232 1.23744 17.8232 1.53033 17.5303L4.37723 14.6834C5.74353 15.3266 7.3172 15.75 9 15.75C11.684 15.75 14.0903 14.6729 15.8206 13.345C16.6874 12.6797 17.4032 11.9376 17.9089 11.2089C18.4006 10.5003 18.75 9.7227 18.75 9C18.75 8.2773 18.4006 7.4997 17.9089 6.79115C17.4032 6.06244 16.6874 5.32028 15.8206 4.65503C15.5585 4.45385 15.2808 4.25842 14.989 4.07163L17.5303 1.53033ZM13.8995 5.16113L12.1287 6.93196C12.5213 7.5248 12.75 8.2357 12.75 9C12.75 11.0711 11.0711 12.75 9 12.75C8.2357 12.75 7.5248 12.5213 6.93196 12.1287L5.51524 13.5454C6.58077 13.9795 7.7621 14.25 9 14.25C11.2865 14.25 13.3802 13.3271 14.9073 12.155C15.6692 11.5703 16.2714 10.9374 16.6766 10.3536C17.0957 9.7497 17.25 9.2773 17.25 9C17.25 8.7227 17.0957 8.2503 16.6766 7.6464C16.2714 7.0626 15.6692 6.42972 14.9073 5.84497C14.5941 5.60461 14.2571 5.37472 13.8995 5.16113ZM8.0299 11.0307C8.3237 11.1713 8.6526 11.25 9 11.25C10.2426 11.25 11.25 10.2426 11.25 9C11.25 8.6526 11.1713 8.3237 11.0307 8.0299L8.0299 11.0307Z" fill="#FF9736"/>
</svg>
